<svg xmlns="http://www.w3.org/2000/svg" xmlns:xlink="http://www.w3.org/1999/xlink" width="500" zoomAndPan="magnify" viewBox="0 0 375 374.999991" height="500" preserveAspectRatio="xMidYMid meet" version="1.0"><defs><g/><linearGradient x1="0" gradientTransform="matrix(0.75, 0, 0, 0.75, 0.0000045, 0)" y1="250" x2="499.999979" gradientUnits="userSpaceOnUse" y2="250" id="654b8f9238"><stop stop-opacity="1" stop-color="rgb(0%, 0%, 0%)" offset="0"/><stop stop-opacity="1" stop-color="rgb(0.0808716%, 0.0778198%, 0.312805%)" offset="0.00390625"/><stop stop-opacity="1" stop-color="rgb(0.161743%, 0.15564%, 0.627136%)" offset="0.0078125"/><stop stop-opacity="1" stop-color="rgb(0.242615%, 0.233459%, 0.941467%)" offset="0.0117187"/><stop stop-opacity="1" stop-color="rgb(0.323486%, 0.311279%, 1.255798%)" offset="0.015625"/><stop stop-opacity="1" stop-color="rgb(0.404358%, 0.389099%, 1.568604%)" offset="0.0195312"/><stop stop-opacity="1" stop-color="rgb(0.486755%, 0.468445%, 1.882935%)" offset="0.0234375"/><stop stop-opacity="1" stop-color="rgb(0.567627%, 0.546265%, 2.197266%)" offset="0.0273438"/><stop stop-opacity="1" stop-color="rgb(0.648499%, 0.624084%, 2.511597%)" offset="0.03125"/><stop stop-opacity="1" stop-color="rgb(0.72937%, 0.701904%, 2.825928%)" offset="0.0351562"/><stop stop-opacity="1" stop-color="rgb(0.811768%, 0.779724%, 3.140259%)" offset="0.0390625"/><stop stop-opacity="1" stop-color="rgb(0.892639%, 0.857544%, 3.453064%)" offset="0.0429687"/><stop stop-opacity="1" stop-color="rgb(0.973511%, 0.93689%, 3.767395%)" offset="0.046875"/><stop stop-opacity="1" stop-color="rgb(1.054382%, 1.014709%, 4.081726%)" offset="0.0507812"/><stop stop-opacity="1" stop-color="rgb(1.13678%, 1.092529%, 4.396057%)" offset="0.0546875"/><stop stop-opacity="1" stop-color="rgb(1.217651%, 1.170349%, 4.710388%)" offset="0.0585938"/><stop stop-opacity="1" stop-color="rgb(1.298523%, 1.249695%, 5.024719%)" offset="0.0625"/><stop stop-opacity="1" stop-color="rgb(1.379395%, 1.327515%, 5.337524%)" offset="0.0664062"/><stop stop-opacity="1" stop-color="rgb(1.461792%, 1.405334%, 5.651855%)" offset="0.0703125"/><stop stop-opacity="1" stop-color="rgb(1.542664%, 1.483154%, 5.966187%)" offset="0.0742187"/><stop stop-opacity="1" stop-color="rgb(1.623535%, 1.560974%, 6.280518%)" offset="0.078125"/><stop stop-opacity="1" stop-color="rgb(1.704407%, 1.638794%, 6.594849%)" offset="0.0820312"/><stop stop-opacity="1" stop-color="rgb(1.786804%, 1.71814%, 6.90918%)" offset="0.0859375"/><stop stop-opacity="1" stop-color="rgb(1.867676%, 1.795959%, 7.221985%)" offset="0.0898437"/><stop stop-opacity="1" stop-color="rgb(1.948547%, 1.873779%, 7.536316%)" offset="0.09375"/><stop stop-opacity="1" stop-color="rgb(2.029419%, 1.951599%, 7.850647%)" offset="0.0976562"/><stop stop-opacity="1" stop-color="rgb(2.111816%, 2.030945%, 8.164978%)" offset="0.101562"/><stop stop-opacity="1" stop-color="rgb(2.192688%, 2.108765%, 8.479309%)" offset="0.105469"/><stop stop-opacity="1" stop-color="rgb(2.27356%, 2.186584%, 8.79364%)" offset="0.109375"/><stop stop-opacity="1" stop-color="rgb(2.354431%, 2.264404%, 9.106445%)" offset="0.113281"/><stop stop-opacity="1" stop-color="rgb(2.436829%, 2.342224%, 9.420776%)" offset="0.117188"/><stop stop-opacity="1" stop-color="rgb(2.5177%, 2.420044%, 9.735107%)" offset="0.121094"/><stop stop-opacity="1" stop-color="rgb(2.598572%, 2.49939%, 10.049438%)" offset="0.125"/><stop stop-opacity="1" stop-color="rgb(2.679443%, 2.577209%, 10.36377%)" offset="0.128906"/><stop stop-opacity="1" stop-color="rgb(2.761841%, 2.655029%, 10.678101%)" offset="0.132812"/><stop stop-opacity="1" stop-color="rgb(2.842712%, 2.732849%, 10.990906%)" offset="0.136719"/><stop stop-opacity="1" stop-color="rgb(2.923584%, 2.812195%, 11.305237%)" offset="0.140625"/><stop stop-opacity="1" stop-color="rgb(3.004456%, 2.890015%, 11.619568%)" offset="0.144531"/><stop stop-opacity="1" stop-color="rgb(3.086853%, 2.967834%, 11.933899%)" offset="0.148437"/><stop stop-opacity="1" stop-color="rgb(3.167725%, 3.045654%, 12.246704%)" offset="0.152344"/><stop stop-opacity="1" stop-color="rgb(3.248596%, 3.123474%, 12.561035%)" offset="0.15625"/><stop stop-opacity="1" stop-color="rgb(3.329468%, 3.201294%, 12.875366%)" offset="0.160156"/><stop stop-opacity="1" stop-color="rgb(3.411865%, 3.28064%, 13.189697%)" offset="0.164062"/><stop stop-opacity="1" stop-color="rgb(3.492737%, 3.358459%, 13.504028%)" offset="0.167969"/><stop stop-opacity="1" stop-color="rgb(3.573608%, 3.436279%, 13.818359%)" offset="0.171875"/><stop stop-opacity="1" stop-color="rgb(3.65448%, 3.514099%, 14.131165%)" offset="0.175781"/><stop stop-opacity="1" stop-color="rgb(3.736877%, 3.593445%, 14.445496%)" offset="0.179687"/><stop stop-opacity="1" stop-color="rgb(3.817749%, 3.671265%, 14.759827%)" offset="0.183594"/><stop stop-opacity="1" stop-color="rgb(3.898621%, 3.749084%, 15.074158%)" offset="0.1875"/><stop stop-opacity="1" stop-color="rgb(3.979492%, 3.826904%, 15.388489%)" offset="0.191406"/><stop stop-opacity="1" stop-color="rgb(4.06189%, 3.904724%, 15.70282%)" offset="0.195312"/><stop stop-opacity="1" stop-color="rgb(4.142761%, 3.982544%, 16.015625%)" offset="0.199219"/><stop stop-opacity="1" stop-color="rgb(4.223633%, 4.06189%, 16.329956%)" offset="0.203125"/><stop stop-opacity="1" stop-color="rgb(4.304504%, 4.139709%, 16.644287%)" offset="0.207031"/><stop stop-opacity="1" stop-color="rgb(4.386902%, 4.217529%, 16.958618%)" offset="0.210938"/><stop stop-opacity="1" stop-color="rgb(4.467773%, 4.295349%, 17.272949%)" offset="0.214844"/><stop stop-opacity="1" stop-color="rgb(4.548645%, 4.374695%, 17.58728%)" offset="0.21875"/><stop stop-opacity="1" stop-color="rgb(4.629517%, 4.452515%, 17.900085%)" offset="0.222656"/><stop stop-opacity="1" stop-color="rgb(4.711914%, 4.530334%, 18.214417%)" offset="0.226562"/><stop stop-opacity="1" stop-color="rgb(4.792786%, 4.608154%, 18.528748%)" offset="0.230469"/><stop stop-opacity="1" stop-color="rgb(4.873657%, 4.685974%, 18.843079%)" offset="0.234375"/><stop stop-opacity="1" stop-color="rgb(4.954529%, 4.763794%, 19.15741%)" offset="0.238281"/><stop stop-opacity="1" stop-color="rgb(5.036926%, 4.84314%, 19.471741%)" offset="0.242188"/><stop stop-opacity="1" stop-color="rgb(5.117798%, 4.920959%, 19.784546%)" offset="0.246094"/><stop stop-opacity="1" stop-color="rgb(5.198669%, 4.998779%, 20.098877%)" offset="0.25"/><stop stop-opacity="1" stop-color="rgb(5.279541%, 5.076599%, 20.413208%)" offset="0.253906"/><stop stop-opacity="1" stop-color="rgb(5.361938%, 5.155945%, 20.727539%)" offset="0.257812"/><stop stop-opacity="1" stop-color="rgb(5.44281%, 5.233765%, 21.04187%)" offset="0.261719"/><stop stop-opacity="1" stop-color="rgb(5.523682%, 5.311584%, 21.356201%)" offset="0.265625"/><stop stop-opacity="1" stop-color="rgb(5.604553%, 5.389404%, 21.669006%)" offset="0.269531"/><stop stop-opacity="1" stop-color="rgb(5.686951%, 5.467224%, 21.983337%)" offset="0.273437"/><stop stop-opacity="1" stop-color="rgb(5.767822%, 5.545044%, 22.297668%)" offset="0.277344"/><stop stop-opacity="1" stop-color="rgb(5.848694%, 5.62439%, 22.612%)" offset="0.28125"/><stop stop-opacity="1" stop-color="rgb(5.929565%, 5.702209%, 22.924805%)" offset="0.285156"/><stop stop-opacity="1" stop-color="rgb(6.011963%, 5.780029%, 23.239136%)" offset="0.289062"/><stop stop-opacity="1" stop-color="rgb(6.092834%, 5.857849%, 23.553467%)" offset="0.292969"/><stop stop-opacity="1" stop-color="rgb(6.173706%, 5.937195%, 23.867798%)" offset="0.296875"/><stop stop-opacity="1" stop-color="rgb(6.254578%, 6.015015%, 24.182129%)" offset="0.300781"/><stop stop-opacity="1" stop-color="rgb(6.336975%, 6.092834%, 24.49646%)" offset="0.304687"/><stop stop-opacity="1" stop-color="rgb(6.417847%, 6.170654%, 24.809265%)" offset="0.308594"/><stop stop-opacity="1" stop-color="rgb(6.498718%, 6.248474%, 25.123596%)" offset="0.3125"/><stop stop-opacity="1" stop-color="rgb(6.57959%, 6.326294%, 25.437927%)" offset="0.316406"/><stop stop-opacity="1" stop-color="rgb(6.661987%, 6.40564%, 25.752258%)" offset="0.320312"/><stop stop-opacity="1" stop-color="rgb(6.742859%, 6.483459%, 26.066589%)" offset="0.324219"/><stop stop-opacity="1" stop-color="rgb(6.82373%, 6.561279%, 26.38092%)" offset="0.328125"/><stop stop-opacity="1" stop-color="rgb(6.904602%, 6.639099%, 26.693726%)" offset="0.332031"/><stop stop-opacity="1" stop-color="rgb(6.987%, 6.718445%, 27.008057%)" offset="0.335937"/><stop stop-opacity="1" stop-color="rgb(7.067871%, 6.796265%, 27.322388%)" offset="0.339844"/><stop stop-opacity="1" stop-color="rgb(7.148743%, 6.874084%, 27.636719%)" offset="0.34375"/><stop stop-opacity="1" stop-color="rgb(7.229614%, 6.951904%, 27.95105%)" offset="0.347656"/><stop stop-opacity="1" stop-color="rgb(7.312012%, 7.029724%, 28.265381%)" offset="0.351562"/><stop stop-opacity="1" stop-color="rgb(7.392883%, 7.107544%, 28.578186%)" offset="0.355469"/><stop stop-opacity="1" stop-color="rgb(7.473755%, 7.18689%, 28.892517%)" offset="0.359375"/><stop stop-opacity="1" stop-color="rgb(7.554626%, 7.264709%, 29.206848%)" offset="0.363281"/><stop stop-opacity="1" stop-color="rgb(7.637024%, 7.342529%, 29.521179%)" offset="0.367187"/><stop stop-opacity="1" stop-color="rgb(7.717896%, 7.420349%, 29.83551%)" offset="0.371094"/><stop stop-opacity="1" stop-color="rgb(7.798767%, 7.499695%, 30.149841%)" offset="0.375"/><stop stop-opacity="1" stop-color="rgb(7.879639%, 7.577515%, 30.462646%)" offset="0.378906"/><stop stop-opacity="1" stop-color="rgb(7.962036%, 7.655334%, 30.776978%)" offset="0.382812"/><stop stop-opacity="1" stop-color="rgb(8.042908%, 7.733154%, 31.091309%)" offset="0.386719"/><stop stop-opacity="1" stop-color="rgb(8.123779%, 7.810974%, 31.40564%)" offset="0.390625"/><stop stop-opacity="1" stop-color="rgb(8.204651%, 7.888794%, 31.719971%)" offset="0.394531"/><stop stop-opacity="1" stop-color="rgb(8.287048%, 7.96814%, 32.034302%)" offset="0.398438"/><stop stop-opacity="1" stop-color="rgb(8.36792%, 8.045959%, 32.347107%)" offset="0.402344"/><stop stop-opacity="1" stop-color="rgb(8.448792%, 8.123779%, 32.661438%)" offset="0.40625"/><stop stop-opacity="1" stop-color="rgb(8.529663%, 8.201599%, 32.975769%)" offset="0.410156"/><stop stop-opacity="1" stop-color="rgb(8.612061%, 8.280945%, 33.2901%)" offset="0.414062"/><stop stop-opacity="1" stop-color="rgb(8.692932%, 8.358765%, 33.602905%)" offset="0.417969"/><stop stop-opacity="1" stop-color="rgb(8.773804%, 8.436584%, 33.917236%)" offset="0.421875"/><stop stop-opacity="1" stop-color="rgb(8.854675%, 8.514404%, 34.231567%)" offset="0.425781"/><stop stop-opacity="1" stop-color="rgb(8.937073%, 8.592224%, 34.545898%)" offset="0.429688"/><stop stop-opacity="1" stop-color="rgb(9.017944%, 8.670044%, 34.860229%)" offset="0.433594"/><stop stop-opacity="1" stop-color="rgb(9.098816%, 8.74939%, 35.174561%)" offset="0.4375"/><stop stop-opacity="1" stop-color="rgb(9.179688%, 8.827209%, 35.487366%)" offset="0.441406"/><stop stop-opacity="1" stop-color="rgb(9.262085%, 8.905029%, 35.801697%)" offset="0.445312"/><stop stop-opacity="1" stop-color="rgb(9.342957%, 8.982849%, 36.116028%)" offset="0.449219"/><stop stop-opacity="1" stop-color="rgb(9.423828%, 9.062195%, 36.430359%)" offset="0.453125"/><stop stop-opacity="1" stop-color="rgb(9.5047%, 9.140015%, 36.74469%)" offset="0.457031"/><stop stop-opacity="1" stop-color="rgb(9.587097%, 9.217834%, 37.059021%)" offset="0.460938"/><stop stop-opacity="1" stop-color="rgb(9.667969%, 9.295654%, 37.371826%)" offset="0.464844"/><stop stop-opacity="1" stop-color="rgb(9.74884%, 9.373474%, 37.686157%)" offset="0.46875"/><stop stop-opacity="1" stop-color="rgb(9.829712%, 9.451294%, 38.000488%)" offset="0.472656"/><stop stop-opacity="1" stop-color="rgb(9.912109%, 9.53064%, 38.314819%)" offset="0.476562"/><stop stop-opacity="1" stop-color="rgb(9.992981%, 9.608459%, 38.62915%)" offset="0.480469"/><stop stop-opacity="1" stop-color="rgb(10.073853%, 9.686279%, 38.943481%)" offset="0.484375"/><stop stop-opacity="1" stop-color="rgb(10.154724%, 9.764099%, 39.256287%)" offset="0.488281"/><stop stop-opacity="1" stop-color="rgb(10.237122%, 9.843445%, 39.570618%)" offset="0.492188"/><stop stop-opacity="1" stop-color="rgb(10.317993%, 9.921265%, 39.884949%)" offset="0.496094"/><stop stop-opacity="1" stop-color="rgb(10.398865%, 9.999084%, 40.19928%)" offset="0.5"/><stop stop-opacity="1" stop-color="rgb(10.479736%, 10.076904%, 40.513611%)" offset="0.503906"/><stop stop-opacity="1" stop-color="rgb(10.562134%, 10.154724%, 40.827942%)" offset="0.507812"/><stop stop-opacity="1" stop-color="rgb(10.643005%, 10.232544%, 41.140747%)" offset="0.511719"/><stop stop-opacity="1" stop-color="rgb(10.723877%, 10.31189%, 41.455078%)" offset="0.515625"/><stop stop-opacity="1" stop-color="rgb(10.804749%, 10.389709%, 41.769409%)" offset="0.519531"/><stop stop-opacity="1" stop-color="rgb(10.887146%, 10.467529%, 42.08374%)" offset="0.523437"/><stop stop-opacity="1" stop-color="rgb(10.968018%, 10.545349%, 42.398071%)" offset="0.527344"/><stop stop-opacity="1" stop-color="rgb(11.048889%, 10.624695%, 42.712402%)" offset="0.53125"/><stop stop-opacity="1" stop-color="rgb(11.129761%, 10.702515%, 43.025208%)" offset="0.535156"/><stop stop-opacity="1" stop-color="rgb(11.212158%, 10.780334%, 43.339539%)" offset="0.539062"/><stop stop-opacity="1" stop-color="rgb(11.29303%, 10.858154%, 43.65387%)" offset="0.542969"/><stop stop-opacity="1" stop-color="rgb(11.373901%, 10.935974%, 43.968201%)" offset="0.546875"/><stop stop-opacity="1" stop-color="rgb(11.454773%, 11.013794%, 44.282532%)" offset="0.550781"/><stop stop-opacity="1" stop-color="rgb(11.53717%, 11.09314%, 44.596863%)" offset="0.554687"/><stop stop-opacity="1" stop-color="rgb(11.618042%, 11.170959%, 44.909668%)" offset="0.558594"/><stop stop-opacity="1" stop-color="rgb(11.698914%, 11.248779%, 45.223999%)" offset="0.5625"/><stop stop-opacity="1" stop-color="rgb(11.779785%, 11.326599%, 45.53833%)" offset="0.566406"/><stop stop-opacity="1" stop-color="rgb(11.862183%, 11.405945%, 45.852661%)" offset="0.570312"/><stop stop-opacity="1" stop-color="rgb(11.943054%, 11.483765%, 46.165466%)" offset="0.574219"/><stop stop-opacity="1" stop-color="rgb(12.023926%, 11.561584%, 46.479797%)" offset="0.578125"/><stop stop-opacity="1" stop-color="rgb(12.104797%, 11.639404%, 46.794128%)" offset="0.582031"/><stop stop-opacity="1" stop-color="rgb(12.187195%, 11.717224%, 47.108459%)" offset="0.585937"/><stop stop-opacity="1" stop-color="rgb(12.268066%, 11.795044%, 47.422791%)" offset="0.589844"/><stop stop-opacity="1" stop-color="rgb(12.348938%, 11.87439%, 47.737122%)" offset="0.59375"/><stop stop-opacity="1" stop-color="rgb(12.42981%, 11.952209%, 48.049927%)" offset="0.597656"/><stop stop-opacity="1" stop-color="rgb(12.512207%, 12.030029%, 48.364258%)" offset="0.601562"/><stop stop-opacity="1" stop-color="rgb(12.593079%, 12.107849%, 48.678589%)" offset="0.605469"/><stop stop-opacity="1" stop-color="rgb(12.67395%, 12.187195%, 48.99292%)" offset="0.609375"/><stop stop-opacity="1" stop-color="rgb(12.754822%, 12.265015%, 49.307251%)" offset="0.613281"/><stop stop-opacity="1" stop-color="rgb(12.837219%, 12.342834%, 49.621582%)" offset="0.617187"/><stop stop-opacity="1" stop-color="rgb(12.918091%, 12.420654%, 49.934387%)" offset="0.621094"/><stop stop-opacity="1" stop-color="rgb(12.998962%, 12.498474%, 50.248718%)" offset="0.625"/><stop stop-opacity="1" stop-color="rgb(13.079834%, 12.576294%, 50.563049%)" offset="0.628906"/><stop stop-opacity="1" stop-color="rgb(13.162231%, 12.65564%, 50.87738%)" offset="0.632812"/><stop stop-opacity="1" stop-color="rgb(13.243103%, 12.733459%, 51.191711%)" offset="0.636719"/><stop stop-opacity="1" stop-color="rgb(13.323975%, 12.811279%, 51.506042%)" offset="0.640625"/><stop stop-opacity="1" stop-color="rgb(13.404846%, 12.889099%, 51.818848%)" offset="0.644531"/><stop stop-opacity="1" stop-color="rgb(13.487244%, 12.968445%, 52.133179%)" offset="0.648437"/><stop stop-opacity="1" stop-color="rgb(13.568115%, 13.046265%, 52.44751%)" offset="0.652344"/><stop stop-opacity="1" stop-color="rgb(13.648987%, 13.124084%, 52.761841%)" offset="0.65625"/><stop stop-opacity="1" stop-color="rgb(13.729858%, 13.201904%, 53.076172%)" offset="0.660156"/><stop stop-opacity="1" stop-color="rgb(13.812256%, 13.279724%, 53.390503%)" offset="0.664062"/><stop stop-opacity="1" stop-color="rgb(13.893127%, 13.357544%, 53.703308%)" offset="0.667969"/><stop stop-opacity="1" stop-color="rgb(13.973999%, 13.43689%, 54.017639%)" offset="0.671875"/><stop stop-opacity="1" stop-color="rgb(14.054871%, 13.514709%, 54.33197%)" offset="0.675781"/><stop stop-opacity="1" stop-color="rgb(14.137268%, 13.592529%, 54.646301%)" offset="0.679687"/><stop stop-opacity="1" stop-color="rgb(14.21814%, 13.670349%, 54.960632%)" offset="0.683594"/><stop stop-opacity="1" stop-color="rgb(14.299011%, 13.749695%, 55.274963%)" offset="0.6875"/><stop stop-opacity="1" stop-color="rgb(14.379883%, 13.827515%, 55.587769%)" offset="0.691406"/><stop stop-opacity="1" stop-color="rgb(14.46228%, 13.905334%, 55.9021%)" offset="0.695312"/><stop stop-opacity="1" stop-color="rgb(14.543152%, 13.983154%, 56.216431%)" offset="0.699219"/><stop stop-opacity="1" stop-color="rgb(14.624023%, 14.060974%, 56.530762%)" offset="0.703125"/><stop stop-opacity="1" stop-color="rgb(14.704895%, 14.138794%, 56.843567%)" offset="0.707031"/><stop stop-opacity="1" stop-color="rgb(14.787292%, 14.21814%, 57.157898%)" offset="0.710937"/><stop stop-opacity="1" stop-color="rgb(14.868164%, 14.295959%, 57.472229%)" offset="0.714844"/><stop stop-opacity="1" stop-color="rgb(14.949036%, 14.373779%, 57.78656%)" offset="0.71875"/><stop stop-opacity="1" stop-color="rgb(15.029907%, 14.451599%, 58.100891%)" offset="0.722656"/><stop stop-opacity="1" stop-color="rgb(15.112305%, 14.530945%, 58.415222%)" offset="0.726562"/><stop stop-opacity="1" stop-color="rgb(15.193176%, 14.608765%, 58.728027%)" offset="0.730469"/><stop stop-opacity="1" stop-color="rgb(15.274048%, 14.686584%, 59.042358%)" offset="0.734375"/><stop stop-opacity="1" stop-color="rgb(15.354919%, 14.764404%, 59.356689%)" offset="0.738281"/><stop stop-opacity="1" stop-color="rgb(15.437317%, 14.842224%, 59.671021%)" offset="0.742187"/><stop stop-opacity="1" stop-color="rgb(15.518188%, 14.920044%, 59.985352%)" offset="0.746094"/><stop stop-opacity="1" stop-color="rgb(15.59906%, 14.99939%, 60.299683%)" offset="0.75"/><stop stop-opacity="1" stop-color="rgb(15.679932%, 15.077209%, 60.612488%)" offset="0.753906"/><stop stop-opacity="1" stop-color="rgb(15.762329%, 15.155029%, 60.926819%)" offset="0.757812"/><stop stop-opacity="1" stop-color="rgb(15.843201%, 15.232849%, 61.24115%)" offset="0.761719"/><stop stop-opacity="1" stop-color="rgb(15.924072%, 15.312195%, 61.555481%)" offset="0.765625"/><stop stop-opacity="1" stop-color="rgb(16.004944%, 15.390015%, 61.869812%)" offset="0.769531"/><stop stop-opacity="1" stop-color="rgb(16.087341%, 15.467834%, 62.184143%)" offset="0.773438"/><stop stop-opacity="1" stop-color="rgb(16.168213%, 15.545654%, 62.496948%)" offset="0.777344"/><stop stop-opacity="1" stop-color="rgb(16.249084%, 15.623474%, 62.811279%)" offset="0.78125"/><stop stop-opacity="1" stop-color="rgb(16.329956%, 15.701294%, 63.12561%)" offset="0.785156"/><stop stop-opacity="1" stop-color="rgb(16.412354%, 15.78064%, 63.439941%)" offset="0.789062"/><stop stop-opacity="1" stop-color="rgb(16.493225%, 15.858459%, 63.754272%)" offset="0.792969"/><stop stop-opacity="1" stop-color="rgb(16.574097%, 15.936279%, 64.068604%)" offset="0.796875"/><stop stop-opacity="1" stop-color="rgb(16.654968%, 16.014099%, 64.381409%)" offset="0.800781"/><stop stop-opacity="1" stop-color="rgb(16.737366%, 16.093445%, 64.69574%)" offset="0.804688"/><stop stop-opacity="1" stop-color="rgb(16.818237%, 16.171265%, 65.010071%)" offset="0.808594"/><stop stop-opacity="1" stop-color="rgb(16.899109%, 16.249084%, 65.324402%)" offset="0.8125"/><stop stop-opacity="1" stop-color="rgb(16.97998%, 16.326904%, 65.638733%)" offset="0.816406"/><stop stop-opacity="1" stop-color="rgb(17.062378%, 16.404724%, 65.953064%)" offset="0.820312"/><stop stop-opacity="1" stop-color="rgb(17.14325%, 16.482544%, 66.265869%)" offset="0.824219"/><stop stop-opacity="1" stop-color="rgb(17.224121%, 16.56189%, 66.5802%)" offset="0.828125"/><stop stop-opacity="1" stop-color="rgb(17.304993%, 16.639709%, 66.894531%)" offset="0.832031"/><stop stop-opacity="1" stop-color="rgb(17.38739%, 16.717529%, 67.208862%)" offset="0.835938"/><stop stop-opacity="1" stop-color="rgb(17.468262%, 16.795349%, 67.521667%)" offset="0.839844"/><stop stop-opacity="1" stop-color="rgb(17.549133%, 16.874695%, 67.835999%)" offset="0.84375"/><stop stop-opacity="1" stop-color="rgb(17.630005%, 16.952515%, 68.15033%)" offset="0.847656"/><stop stop-opacity="1" stop-color="rgb(17.712402%, 17.030334%, 68.464661%)" offset="0.851562"/><stop stop-opacity="1" stop-color="rgb(17.793274%, 17.108154%, 68.778992%)" offset="0.855469"/><stop stop-opacity="1" stop-color="rgb(17.874146%, 17.185974%, 69.093323%)" offset="0.859375"/><stop stop-opacity="1" stop-color="rgb(17.955017%, 17.263794%, 69.406128%)" offset="0.863281"/><stop stop-opacity="1" stop-color="rgb(18.037415%, 17.34314%, 69.720459%)" offset="0.867188"/><stop stop-opacity="1" stop-color="rgb(18.118286%, 17.420959%, 70.03479%)" offset="0.871094"/><stop stop-opacity="1" stop-color="rgb(18.199158%, 17.498779%, 70.349121%)" offset="0.875"/><stop stop-opacity="1" stop-color="rgb(18.280029%, 17.576599%, 70.663452%)" offset="0.878906"/><stop stop-opacity="1" stop-color="rgb(18.362427%, 17.655945%, 70.977783%)" offset="0.882812"/><stop stop-opacity="1" stop-color="rgb(18.443298%, 17.733765%, 71.290588%)" offset="0.886719"/><stop stop-opacity="1" stop-color="rgb(18.52417%, 17.811584%, 71.604919%)" offset="0.890625"/><stop stop-opacity="1" stop-color="rgb(18.605042%, 17.889404%, 71.91925%)" offset="0.894531"/><stop stop-opacity="1" stop-color="rgb(18.687439%, 17.967224%, 72.233582%)" offset="0.898438"/><stop stop-opacity="1" stop-color="rgb(18.768311%, 18.045044%, 72.547913%)" offset="0.902344"/><stop stop-opacity="1" stop-color="rgb(18.849182%, 18.12439%, 72.862244%)" offset="0.90625"/><stop stop-opacity="1" stop-color="rgb(18.930054%, 18.202209%, 73.175049%)" offset="0.910156"/><stop stop-opacity="1" stop-color="rgb(19.012451%, 18.280029%, 73.48938%)" offset="0.914062"/><stop stop-opacity="1" stop-color="rgb(19.093323%, 18.357849%, 73.803711%)" offset="0.917969"/><stop stop-opacity="1" stop-color="rgb(19.174194%, 18.437195%, 74.118042%)" offset="0.921875"/><stop stop-opacity="1" stop-color="rgb(19.255066%, 18.515015%, 74.432373%)" offset="0.925781"/><stop stop-opacity="1" stop-color="rgb(19.337463%, 18.592834%, 74.746704%)" offset="0.929688"/><stop stop-opacity="1" stop-color="rgb(19.418335%, 18.670654%, 75.059509%)" offset="0.933594"/><stop stop-opacity="1" stop-color="rgb(19.499207%, 18.748474%, 75.37384%)" offset="0.9375"/><stop stop-opacity="1" stop-color="rgb(19.580078%, 18.826294%, 75.688171%)" offset="0.941406"/><stop stop-opacity="1" stop-color="rgb(19.662476%, 18.90564%, 76.002502%)" offset="0.945312"/><stop stop-opacity="1" stop-color="rgb(19.743347%, 18.983459%, 76.316833%)" offset="0.949219"/><stop stop-opacity="1" stop-color="rgb(19.824219%, 19.061279%, 76.631165%)" offset="0.953125"/><stop stop-opacity="1" stop-color="rgb(19.90509%, 19.139099%, 76.94397%)" offset="0.957031"/><stop stop-opacity="1" stop-color="rgb(19.987488%, 19.218445%, 77.258301%)" offset="0.960938"/><stop stop-opacity="1" stop-color="rgb(20.068359%, 19.296265%, 77.572632%)" offset="0.964844"/><stop stop-opacity="1" stop-color="rgb(20.149231%, 19.374084%, 77.886963%)" offset="0.96875"/><stop stop-opacity="1" stop-color="rgb(20.230103%, 19.451904%, 78.199768%)" offset="0.972656"/><stop stop-opacity="1" stop-color="rgb(20.310974%, 19.529724%, 78.514099%)" offset="0.976562"/><stop stop-opacity="1" stop-color="rgb(20.391846%, 19.607544%, 78.82843%)" offset="0.980469"/><stop stop-opacity="1" stop-color="rgb(20.474243%, 19.68689%, 79.142761%)" offset="0.984375"/><stop stop-opacity="1" stop-color="rgb(20.555115%, 19.764709%, 79.457092%)" offset="0.988281"/><stop stop-opacity="1" stop-color="rgb(20.635986%, 19.842529%, 79.771423%)" offset="0.992188"/><stop stop-opacity="1" stop-color="rgb(20.716858%, 19.920349%, 80.084229%)" offset="0.996094"/><stop stop-opacity="1" stop-color="rgb(20.799255%, 19.999695%, 80.39856%)" offset="1"/></linearGradient><clipPath id="8c189045f0"><path d="M 37.5 37.5 L 337.5 37.5 L 337.5 337.5 L 37.5 337.5 Z M 37.5 37.5 " clip-rule="nonzero"/></clipPath><clipPath id="d6ffd05e54"><path d="M 187.5 37.5 C 104.65625 37.5 37.5 104.65625 37.5 187.5 C 37.5 270.34375 104.65625 337.5 187.5 337.5 C 270.34375 337.5 337.5 270.34375 337.5 187.5 C 337.5 104.65625 270.34375 37.5 187.5 37.5 Z M 187.5 37.5 " clip-rule="nonzero"/></clipPath><clipPath id="ad71658573"><path d="M 76.941406 226.71875 L 108.703125 226.71875 L 108.703125 315.21875 L 76.941406 315.21875 Z M 76.941406 226.71875 " clip-rule="nonzero"/></clipPath><clipPath id="d1b677cfa5"><path d="M 283.59375 213.894531 L 337.5 213.894531 L 337.5 239.515625 L 283.59375 239.515625 Z M 283.59375 213.894531 " clip-rule="nonzero"/></clipPath></defs><rect x="-37.5" fill="url(#654b8f9238)" width="450" y="-37.499999" height="449.999989"/><g clip-path="url(#8c189045f0)"><g clip-path="url(#d6ffd05e54)"><path fill="#ffffff" d="M 37.5 37.5 L 337.5 37.5 L 337.5 337.5 L 37.5 337.5 Z M 37.5 37.5 " fill-opacity="1" fill-rule="nonzero"/></g></g><g fill="#13394e" fill-opacity="1"><g transform="translate(67.643815, 239.400325)"><g><path d="M 103.921875 0 L 103.921875 -38.75 C 103.921875 -43.539062 104.101562 -48.460938 104.46875 -53.515625 C 104.832031 -58.566406 105.222656 -62.8125 105.640625 -66.25 C 106.054688 -69.6875 106.316406 -71.875 106.421875 -72.8125 L 105.796875 -72.8125 L 85.953125 0 L 58.90625 0 L 38.90625 -72.65625 L 38.28125 -72.65625 C 38.382812 -71.71875 38.671875 -69.554688 39.140625 -66.171875 C 39.609375 -62.785156 40.050781 -58.566406 40.46875 -53.515625 C 40.882812 -48.460938 41.09375 -43.539062 41.09375 -38.75 L 41.09375 0 L 9.375 0 L 9.375 -107.515625 L 58.125 -107.515625 L 74.375 -45.46875 L 75 -45.46875 L 91.109375 -107.515625 L 138.140625 -107.515625 L 138.140625 0 Z M 103.921875 0 "/></g></g></g><path stroke-linecap="butt" transform="matrix(0.494289, 0, 0, 0.494289, 119.961465, 78.262113)" fill="none" stroke-linejoin="miter" d="M 230.830812 273.822124 L 334.175276 273.822124 L 334.175276 325.996182 L 123.313687 325.996182 L 123.313687 303.536523 L 224.192489 160.67823 L 130.955661 160.67823 L 130.955661 108.49627 L 331.709614 108.49627 L 331.709614 130.955929 Z M 230.830812 273.822124 " stroke="#ffffff" stroke-width="45.050236" stroke-opacity="1" stroke-miterlimit="4"/><g fill="#13394e" fill-opacity="1"><g transform="translate(177.175415, 239.400325)"><g><path d="M 56.875 -25.78125 L 107.984375 -25.78125 L 107.984375 0 L 3.75 0 L 3.75 -11.09375 L 53.59375 -81.734375 L 7.5 -81.734375 L 7.5 -107.515625 L 106.734375 -107.515625 L 106.734375 -96.421875 Z M 56.875 -25.78125 "/></g></g></g><g clip-path="url(#ad71658573)"><path fill="#13394e" d="M 76.941406 226.71875 L 108.703125 226.71875 L 108.703125 315.171875 L 76.941406 315.171875 Z M 76.941406 226.71875 " fill-opacity="1" fill-rule="nonzero"/></g><g clip-path="url(#d1b677cfa5)"><path fill="#13394e" d="M 283.59375 213.894531 L 337.539062 213.894531 L 337.539062 239.515625 L 283.59375 239.515625 Z M 283.59375 213.894531 " fill-opacity="1" fill-rule="nonzero"/></g><path stroke-linecap="butt" transform="matrix(0.75, -0.000000000000000372, 0.000000000000000372, 0.75, 76.942396, 116.714992)" fill="none" stroke-linejoin="miter" d="M -0.00132 1.999802 L 65.186184 1.999802 " stroke="#272727" stroke-width="4" stroke-opacity="1" stroke-miterlimit="4"/><g fill="#272727" fill-opacity="1"><g transform="translate(125.447531, 265.444142)"><g><path d="M 12.25 0 L 11.609375 -8.078125 L 11.53125 -8.078125 L 8.734375 -0.078125 L 6.890625 -0.078125 L 4.09375 -8.078125 L 4.015625 -8.078125 L 3.375 0 L 0.265625 0 L 1.484375 -13.625 L 4.796875 -13.625 L 7.8125 -5.765625 L 10.828125 -13.625 L 14.140625 -13.625 L 15.359375 0 Z M 12.25 0 "/></g></g></g><g fill="#272727" fill-opacity="1"><g transform="translate(142.141617, 265.444142)"><g><path d="M 0.984375 -13.625 L 4.9375 -13.625 C 6.832031 -13.625 8.453125 -12.976562 9.796875 -11.6875 C 11.140625 -10.394531 11.8125 -8.773438 11.8125 -6.828125 C 11.8125 -4.859375 11.140625 -3.226562 9.796875 -1.9375 C 8.460938 -0.644531 6.84375 0 4.9375 0 L 0.984375 0 Z M 4.09375 -2.78125 L 4.578125 -2.78125 C 5.710938 -2.78125 6.640625 -3.160156 7.359375 -3.921875 C 8.078125 -4.691406 8.441406 -5.648438 8.453125 -6.796875 C 8.453125 -7.953125 8.09375 -8.914062 7.375 -9.6875 C 6.65625 -10.457031 5.722656 -10.84375 4.578125 -10.84375 L 4.09375 -10.84375 Z M 4.09375 -2.78125 "/></g></g></g><g fill="#272727" fill-opacity="1"><g transform="translate(155.401274, 265.444142)"><g/></g></g><g fill="#272727" fill-opacity="1"><g transform="translate(160.983001, 265.444142)"><g><path d="M 12.4375 -13.625 L 5.6875 -2.71875 L 11.984375 -2.71875 L 11.984375 0 L 0.265625 0 L 7 -10.90625 L 1.21875 -10.90625 L 1.21875 -13.625 Z M 12.4375 -13.625 "/></g></g></g><g fill="#272727" fill-opacity="1"><g transform="translate(174.754516, 265.444142)"><g><path d="M 8.78125 -13.625 L 8.78125 -10.90625 L 4.09375 -10.90625 L 4.09375 -8.1875 L 8.59375 -8.1875 L 8.59375 -5.46875 L 4.09375 -5.46875 L 4.09375 -2.71875 L 8.78125 -2.71875 L 8.78125 0 L 0.984375 0 L 0.984375 -13.625 Z M 8.78125 -13.625 "/></g></g></g><g fill="#272727" fill-opacity="1"><g transform="translate(185.40532, 265.444142)"><g><path d="M 8.78125 -13.625 L 8.78125 -10.90625 L 4.09375 -10.90625 L 4.09375 -8.1875 L 8.59375 -8.1875 L 8.59375 -5.46875 L 4.09375 -5.46875 L 4.09375 -2.71875 L 8.78125 -2.71875 L 8.78125 0 L 0.984375 0 L 0.984375 -13.625 Z M 8.78125 -13.625 "/></g></g></g><g fill="#272727" fill-opacity="1"><g transform="translate(196.056124, 265.444142)"><g><path d="M 6.015625 -13.875 C 6.753906 -13.875 7.472656 -13.765625 8.171875 -13.546875 C 8.878906 -13.335938 9.40625 -13.128906 9.75 -12.921875 L 10.234375 -12.578125 L 8.984375 -10.109375 C 8.878906 -10.171875 8.738281 -10.253906 8.5625 -10.359375 C 8.394531 -10.460938 8.066406 -10.601562 7.578125 -10.78125 C 7.097656 -10.957031 6.644531 -11.046875 6.21875 -11.046875 C 5.707031 -11.046875 5.3125 -10.9375 5.03125 -10.71875 C 4.75 -10.5 4.609375 -10.203125 4.609375 -9.828125 C 4.609375 -9.640625 4.671875 -9.460938 4.796875 -9.296875 C 4.929688 -9.140625 5.160156 -8.96875 5.484375 -8.78125 C 5.804688 -8.601562 6.085938 -8.457031 6.328125 -8.34375 C 6.566406 -8.238281 6.941406 -8.078125 7.453125 -7.859375 C 8.328125 -7.484375 9.078125 -6.972656 9.703125 -6.328125 C 10.328125 -5.691406 10.640625 -4.960938 10.640625 -4.140625 C 10.640625 -3.359375 10.5 -2.675781 10.21875 -2.09375 C 9.9375 -1.507812 9.550781 -1.050781 9.0625 -0.71875 C 8.570312 -0.394531 8.03125 -0.15625 7.4375 0 C 6.84375 0.164062 6.195312 0.25 5.5 0.25 C 4.90625 0.25 4.320312 0.1875 3.75 0.0625 C 3.175781 -0.0507812 2.695312 -0.195312 2.3125 -0.375 C 1.925781 -0.5625 1.578125 -0.742188 1.265625 -0.921875 C 0.960938 -1.097656 0.738281 -1.25 0.59375 -1.375 L 0.375 -1.546875 L 1.9375 -4.15625 C 2.0625 -4.050781 2.238281 -3.910156 2.46875 -3.734375 C 2.707031 -3.566406 3.117188 -3.335938 3.703125 -3.046875 C 4.296875 -2.765625 4.816406 -2.625 5.265625 -2.625 C 6.578125 -2.625 7.234375 -3.070312 7.234375 -3.96875 C 7.234375 -4.15625 7.1875 -4.328125 7.09375 -4.484375 C 7 -4.640625 6.832031 -4.796875 6.59375 -4.953125 C 6.363281 -5.117188 6.15625 -5.25 5.96875 -5.34375 C 5.789062 -5.4375 5.492188 -5.578125 5.078125 -5.765625 C 4.660156 -5.960938 4.351562 -6.109375 4.15625 -6.203125 C 3.332031 -6.617188 2.691406 -7.128906 2.234375 -7.734375 C 1.785156 -8.347656 1.5625 -9.007812 1.5625 -9.71875 C 1.5625 -10.9375 2.015625 -11.929688 2.921875 -12.703125 C 3.828125 -13.484375 4.859375 -13.875 6.015625 -13.875 Z M 6.015625 -13.875 "/></g></g></g><g fill="#272727" fill-opacity="1"><g transform="translate(208.226005, 265.444142)"><g><path d="M 4.09375 -5.46875 L 4.09375 0 L 0.984375 0 L 0.984375 -13.625 L 4.09375 -13.625 L 4.09375 -8.1875 L 8.484375 -8.1875 L 8.484375 -13.625 L 11.59375 -13.625 L 11.59375 0 L 8.484375 0 L 8.484375 -5.46875 Z M 4.09375 -5.46875 "/></g></g></g><g fill="#272727" fill-opacity="1"><g transform="translate(221.881941, 265.444142)"><g><path d="M 7.90625 -13.625 L 13.40625 0 L 10.078125 0 L 9.0625 -2.71875 L 3.875 -2.71875 L 2.875 0 L -0.46875 0 L 5.03125 -13.625 Z M 8.015625 -5.453125 L 6.484375 -9.40625 L 6.453125 -9.40625 L 4.9375 -5.453125 Z M 8.015625 -5.453125 "/></g></g></g><g fill="#272727" fill-opacity="1"><g transform="translate(235.901136, 265.444142)"><g><path d="M 4.09375 -8.453125 L 4.09375 0 L 0.984375 0 L 0.984375 -13.625 L 4.09375 -13.625 L 9.515625 -5.171875 L 9.546875 -5.171875 L 9.546875 -13.625 L 12.65625 -13.625 L 12.65625 0 L 9.546875 0 L 4.125 -8.453125 Z M 4.09375 -8.453125 "/></g></g></g><g fill="#272727" fill-opacity="1"><g transform="translate(144.996405, 279.647386)"><g><path d="M 2.71875 -5.71875 C 3.289062 -5.71875 3.785156 -5.613281 4.203125 -5.40625 C 4.617188 -5.195312 4.9375 -4.878906 5.15625 -4.453125 C 5.382812 -4.023438 5.5 -3.492188 5.5 -2.859375 C 5.5 -2.210938 5.382812 -1.675781 5.15625 -1.25 C 4.9375 -0.832031 4.617188 -0.519531 4.203125 -0.3125 C 3.785156 -0.101562 3.289062 0 2.71875 0 L 0.859375 0 L 0.859375 -5.71875 Z M 2.640625 -0.578125 C 3.117188 -0.578125 3.515625 -0.648438 3.828125 -0.796875 C 4.140625 -0.941406 4.375 -1.179688 4.53125 -1.515625 C 4.695312 -1.859375 4.78125 -2.304688 4.78125 -2.859375 C 4.78125 -3.410156 4.695312 -3.851562 4.53125 -4.1875 C 4.375 -4.53125 4.140625 -4.773438 3.828125 -4.921875 C 3.515625 -5.066406 3.117188 -5.140625 2.640625 -5.140625 L 1.53125 -5.140625 L 1.53125 -0.578125 Z M 2.640625 -0.578125 "/></g></g></g><g fill="#272727" fill-opacity="1"><g transform="translate(155.794692, 279.647386)"><g><path d="M 1.53125 -2.6875 L 1.53125 -0.5625 L 4.453125 -0.5625 L 4.453125 0 L 0.859375 0 L 0.859375 -5.71875 L 4.390625 -5.71875 L 4.390625 -5.15625 L 1.53125 -5.15625 L 1.53125 -3.25 L 4.046875 -3.25 L 4.046875 -2.6875 Z M 1.53125 -2.6875 "/></g></g></g><g fill="#272727" fill-opacity="1"><g transform="translate(165.346887, 279.647386)"><g><path d="M 3.109375 0 L 2.234375 0 L 0.25 -5.71875 L 0.96875 -5.71875 L 2.640625 -0.84375 L 2.734375 -0.84375 L 4.390625 -5.71875 L 5.09375 -5.71875 Z M 3.109375 0 "/></g></g></g><g fill="#272727" fill-opacity="1"><g transform="translate(175.410801, 279.647386)"><g><path d="M 1.53125 -2.6875 L 1.53125 -0.5625 L 4.453125 -0.5625 L 4.453125 0 L 0.859375 0 L 0.859375 -5.71875 L 4.390625 -5.71875 L 4.390625 -5.15625 L 1.53125 -5.15625 L 1.53125 -3.25 L 4.046875 -3.25 L 4.046875 -2.6875 Z M 1.53125 -2.6875 "/></g></g></g><g fill="#272727" fill-opacity="1"><g transform="translate(184.962997, 279.647386)"><g><path d="M 1.53125 -5.71875 L 1.53125 -0.5625 L 4.28125 -0.5625 L 4.28125 0 L 0.859375 0 L 0.859375 -5.71875 Z M 1.53125 -5.71875 "/></g></g></g><g fill="#272727" fill-opacity="1"><g transform="translate(194.218321, 279.647386)"><g><path d="M 3.140625 0.078125 C 2.640625 0.078125 2.195312 -0.0234375 1.8125 -0.234375 C 1.425781 -0.453125 1.125 -0.78125 0.90625 -1.21875 C 0.6875 -1.65625 0.578125 -2.203125 0.578125 -2.859375 C 0.578125 -3.515625 0.6875 -4.0625 0.90625 -4.5 C 1.125 -4.9375 1.425781 -5.257812 1.8125 -5.46875 C 2.195312 -5.6875 2.640625 -5.796875 3.140625 -5.796875 C 3.628906 -5.796875 4.066406 -5.6875 4.453125 -5.46875 C 4.835938 -5.257812 5.140625 -4.9375 5.359375 -4.5 C 5.585938 -4.0625 5.703125 -3.515625 5.703125 -2.859375 C 5.703125 -2.203125 5.585938 -1.65625 5.359375 -1.21875 C 5.140625 -0.78125 4.835938 -0.453125 4.453125 -0.234375 C 4.066406 -0.0234375 3.628906 0.078125 3.140625 0.078125 Z M 3.140625 -0.546875 C 3.734375 -0.546875 4.1875 -0.726562 4.5 -1.09375 C 4.820312 -1.46875 4.984375 -2.054688 4.984375 -2.859375 C 4.984375 -3.660156 4.820312 -4.242188 4.5 -4.609375 C 4.1875 -4.984375 3.734375 -5.171875 3.140625 -5.171875 C 1.910156 -5.171875 1.296875 -4.398438 1.296875 -2.859375 C 1.296875 -1.316406 1.910156 -0.546875 3.140625 -0.546875 Z M 3.140625 -0.546875 "/></g></g></g><g fill="#272727" fill-opacity="1"><g transform="translate(205.211922, 279.647386)"><g><path d="M 2.90625 -5.71875 C 3.300781 -5.71875 3.640625 -5.644531 3.921875 -5.5 C 4.203125 -5.363281 4.414062 -5.160156 4.5625 -4.890625 C 4.707031 -4.628906 4.78125 -4.320312 4.78125 -3.96875 C 4.78125 -3.613281 4.707031 -3.304688 4.5625 -3.046875 C 4.414062 -2.785156 4.203125 -2.582031 3.921875 -2.4375 C 3.640625 -2.300781 3.300781 -2.234375 2.90625 -2.234375 L 1.53125 -2.234375 L 1.53125 0 L 0.859375 0 L 0.859375 -5.71875 Z M 2.890625 -2.8125 C 3.679688 -2.8125 4.078125 -3.195312 4.078125 -3.96875 C 4.078125 -4.75 3.679688 -5.140625 2.890625 -5.140625 L 1.53125 -5.140625 L 1.53125 -2.8125 Z M 2.890625 -2.8125 "/></g></g></g><g fill="#272727" fill-opacity="1"><g transform="translate(215.146932, 279.647386)"><g><path d="M 1.53125 -2.6875 L 1.53125 -0.5625 L 4.453125 -0.5625 L 4.453125 0 L 0.859375 0 L 0.859375 -5.71875 L 4.390625 -5.71875 L 4.390625 -5.15625 L 1.53125 -5.15625 L 1.53125 -3.25 L 4.046875 -3.25 L 4.046875 -2.6875 Z M 1.53125 -2.6875 "/></g></g></g><g fill="#272727" fill-opacity="1"><g transform="translate(224.699131, 279.647386)"><g><path d="M 0.859375 0 L 0.859375 -5.71875 L 2.9375 -5.71875 C 3.320312 -5.71875 3.644531 -5.648438 3.90625 -5.515625 C 4.164062 -5.390625 4.359375 -5.210938 4.484375 -4.984375 C 4.617188 -4.753906 4.6875 -4.484375 4.6875 -4.171875 C 4.6875 -3.816406 4.597656 -3.523438 4.421875 -3.296875 C 4.242188 -3.066406 3.96875 -2.894531 3.59375 -2.78125 L 3.59375 -2.6875 C 3.78125 -2.613281 3.929688 -2.5 4.046875 -2.34375 C 4.160156 -2.1875 4.269531 -1.957031 4.375 -1.65625 L 4.890625 0 L 4.203125 0 L 3.640625 -1.75 C 3.566406 -1.957031 3.484375 -2.117188 3.390625 -2.234375 C 3.304688 -2.347656 3.195312 -2.429688 3.0625 -2.484375 C 2.925781 -2.535156 2.753906 -2.5625 2.546875 -2.5625 L 1.53125 -2.5625 L 1.53125 0 Z M 2.921875 -3.140625 C 3.273438 -3.140625 3.539062 -3.21875 3.71875 -3.375 C 3.894531 -3.539062 3.984375 -3.796875 3.984375 -4.140625 C 3.984375 -4.472656 3.894531 -4.722656 3.71875 -4.890625 C 3.539062 -5.054688 3.273438 -5.140625 2.921875 -5.140625 L 1.53125 -5.140625 L 1.53125 -3.140625 Z M 2.921875 -3.140625 "/></g></g></g></svg>